<?xml version="1.0" encoding="UTF-8"?>
<svg id="Layer_2" data-name="Layer 2" xmlns="http://www.w3.org/2000/svg" viewBox="0 0 147.45 73.86">
  <defs>
    <style>
      .cls-1 {
        fill: #f8f9f1;
      }

      .cls-1, .cls-2, .cls-3, .cls-4, .cls-5, .cls-6, .cls-7, .cls-8, .cls-9, .cls-10, .cls-11, .cls-12, .cls-13, .cls-14, .cls-15 {
        stroke-width: 0px;
      }

      .cls-2 {
        fill: #61703c;
      }

      .cls-3 {
        fill: #7b62a6;
      }

      .cls-4 {
        fill: #5283bb;
      }

      .cls-5 {
        fill: #375b8b;
      }

      .cls-6 {
        fill: #5696d1;
      }

      .cls-7 {
        fill: #3f76c7;
      }

      .cls-8 {
        fill: #d1882d;
      }

      .cls-9 {
        fill: #cc2b2d;
      }

      .cls-10 {
        fill: #d58e31;
      }

      .cls-11 {
        fill: #d8df53;
      }

      .cls-12 {
        fill: #9f5f2f;
      }

      .cls-13 {
        fill: #efea34;
      }

      .cls-14 {
        fill: #e8dc3e;
      }

      .cls-15 {
        fill: #e6e6e8;
      }
    </style>
  </defs>
  <g id="Layer_1-2" data-name="Layer 1">
    <g>
      <path class="cls-4" d="m127.3,73.06c-3.04,0-6.08,0-9.13,0-1.11,0-2.24.13-3.13-.76-.28-.28-.65-.37-.91-.02-.78,1.01-1.88.78-2.91.78-5.5,0-11,.01-16.5,0-2.54,0-3.84-1.52-3.53-4.07.15-1.23.6-2.37.99-3.53.17-.51.67-1.18-.15-1.48-.76-.28-1.27.11-1.55.96-.59,1.83-1.29,3.62-1.95,5.43-.26.71-.54,1.42-.79,2.13-.31.86-.86,1.44-1.81,1.35-1.03-.1-1.51-.86-1.59-1.82-.17-2.04-.25-4.08-.41-6.12-.03-.46.26-1.17-.54-1.26-.62-.07-.68.58-.84.96-2.31,5.7-9.79,9.04-15.97,4.96-.3-.2-.61-.52-.93-.37-1.91.86-4.36.16-5.92,2.07-.43.53-1.17.44-1.81.44-11.87,0-23.74,0-35.6,0-2.51,0-3.85-1.58-3.54-4.1.18-1.4.73-2.7,1.2-4.01.38-1.08.11-1.44-1.13-1.3-1.88.21-2.99.9-3.46,2.93-.48,2.08-1.47,4.04-2.22,6.06-.32.86-.88,1.43-1.82,1.3-1-.15-1.45-.88-1.51-1.87-.21-3.5-.43-7-.64-10.5-.05-.87.36-1.56.87-2.23,1.51-1.98,3.51-3.41,5.51-4.84.32-.23.89-.31.83-.79-.07-.55-.65-.56-1.09-.67-4.34-1.13-8.8-1.06-13.23-1.35-.86-.06-1.73-.14-2-1.07-.34-1.16.19-1.97,1.38-2.18,1.78-.32,3.57-.58,5.36-.81,6.61-.85,13.17-.78,19.6,1.23,1.91.6,3.68,1.49,5.31,2.63,2.4,1.67,2.67,4.05.82,6.32-.34.41-1.18.69-.8,1.38.32.57,1.07.28,1.62.28,4.68,0,9.37-.23,14.03,0,3.61.18,7.2-.2,10.79-.04,2.34.1,2.93.98,1.94,3.06-.36.75-.69,1.51-.33,2.34.1.22.44.17.61,0,.66-.66,1.79-.9,1.69-2.21-.24-3.36,1-6.18,3.39-8.49,2.05-1.99,4.51-3.11,7.38-3.14.89,0,1.55-.04,1.69-1.18.1-.8.88-1.04,1.59-1.16,8-1.37,16.01-1.98,23.97.24,2.32.65,4.5,1.64,6.41,3.14,1.74,1.36,2.17,2.89,1.25,4.92-.55,1.21-.15,1.48.98,1.35,6.8-.82,13.63-1.07,20.48-1.04.68,0,1.25-.02,1.44-.89.23-1.02,1.05-1.34,2.01-1.33,1.05,0,2.11.02,3.16.04.69.02,1.36.22,1.55.92.58,2.06,1.97,1.34,3.19.94,1.92-.63,3.78-.8,5.52.41,1.68,1.16,1.73,3.2.1,4.42-1.44,1.08-3.08,1.33-4.82.81-.5-.15-1.02-.43-1.5-.38-1.12.11-2.76-.62-3.27.4-.75,1.51-.91,3.35-1.11,5.08-.1.84.81.62,1.34.65.98.06,2.12-.15,2.54,1.05.42,1.22-.03,2.41-.58,3.5-.34.68-1.08.58-1.73.58-3.28,0-6.55,0-9.83,0,0-.01,0-.02,0-.03Zm-45.15-13.68c1.74-1.01,3.16-2.39,4.43-3.93.54-.66,1.3-1.43.66-2.33-.58-.81-1.49-.38-2.27-.15-1.76.5-3.33,1.41-4.91,2.27-.52-.01-.81-.4-1.16-.7-3.97-3.39-9.72-3.07-13.17.79-2.31,2.58-2.81,5.64-2.14,8.96-2.48,1.4-4.62,3.29-6.93,4.93-.12-1.74.74-3.25,1.13-4.88.1-.42.46-.88-.02-1.28-.8-.65-3.09.09-3.42,1.12-.35,1.11-.65,2.24-1,3.35-.25.81-.87,1.09-1.65.92-.94-.2-.49-.92-.42-1.42.63-4.52,1-4.83,5.58-4.85.12,0,.23-.01.35,0,1.02.13,1.49-.39,1.66-1.45-2.08,0-4.12-.08-6.14.02-3.42.18-4.19,2.79-4.9,5.48-.26.97.15,2.37-.82,2.83-.86.41-2.06.12-3.11.09-.43,0-1.03.23-1.24-.34-.19-.51.32-.83.61-1.17,1.96-2.3,3.94-4.6,5.91-6.89-.08-.47-.35-.68-.83-.68-2.65,0-5.3,0-7.95,0-.41,0-.61.25-.72.61-.5.95-.66,1.66.86,1.52.69-.06,1.45-.19,2.24.19-1.41,1.61-2.85,3.01-3.99,4.62-1.26,1.77-2.8,2.51-4.91,2.13-.48-.09-1.18.3-1.4-.33-.2-.55.41-.91.74-1.3,1.88-2.19,3.76-4.37,5.83-6.77-3.05,0-5.74.04-8.42-.02-1.03-.02-1.55.32-1.57,1.39,1.06.37,2.26-.2,3.45.41-1.82,2.08-3.57,4.04-5.27,6.04-.61.72-1.42.76-2.06.45-.73-.36-.28-1.18-.1-1.74.64-1.99,1.37-3.95,2.14-6.14-1.01,0-1.81,0-2.61,0,0-.36-.14-.65-.48-.82.96-.4,1.93-.81,2.89-1.21,1.51-.64,2.97-1.38,4.14-2.56,1.42-1.44,1.34-2.73-.23-3.98-1.06-.84-2.26-1.45-3.51-1.95-5.91-2.38-12.08-2.41-18.29-1.95-2.1.16-4.25.21-6.25,1.03,2.69.14,5.37.16,8.02.56,3,.45,6.06.67,8.7,2.36,1.65,1.06,1.88,2.24.85,3.85-1.12,1.75-2.75,2.91-4.66,3.99-.03-1.75.91-3.17.73-4.94-1.92,1.29-3.64,2.57-5,4.27-.32.4-.66.81-.63,1.4.17,3.41.33,6.82.49,10.23,1.39-2.64,2.36-5.34,3.31-8.05.17-.5.21-1.02.89-1.14,2.06-.37,4.12-.77,6.18-1.17.14.37.39.63.76.77-.63,1.97-1.28,3.93-1.89,5.9-.39,1.26-.6,2.51.83,3.33.34.99,1.18.56,1.8.56,8.63.03,17.26.03,25.89.01.61,0,1.3.24,1.8-.36.65-.13,1.4.05,1.85-.67.19-.3.56-.59.81-.17.61,1.05,1.53.43,2.31.54,1.11.62,2.25.37,3.39.12,2.45-.54,4.72-1.58,7.01-2.55,4.64,4.29,11.2,2.99,14.32-1.61,1.58-2.33,1.63-4.92,1.51-7.56Zm33.4-.43c-.93.03-1.87.06-2.8.09-.77-.45-1.53-.86-2.11.26-.82.04-1.63.07-2.45.11-.66-.54-1.28-.77-1.76.21-.34.21-.9-.07-1.08.49-.28.58-1.37.02-1.38.98-1.52.32-2.99.83-3.7,2.33-.86,1.81-1.57,3.7-1.53,5.77-.13.12-.26.24-.39.36h-.7c-.03-.52.15-1.11-.44-1.45.42-2.36,1.6-4.51,1.92-6.9.03-.07.07-.15.1-.22-.07.04-.14.07-.21.11-.73.16-1.49.25-2.19.51-.67.24-1.58.07-1.89,1-.69,2.03-1.43,4.04-2.05,6.09-.32,1.05-.24,2.1.91,2.72.09.52.46.6.91.6,2.57,0,5.14,0,7.71,0,.37,0,.7-.06.83-.48.87-1.09,1.82-.26,2.78-.19,1.92.13,3.86-.02,5.79.04.89.03,1.06-.47,1.22-1.15.49-2.16,1.03-4.31,1.51-6.48.17-.77.42-1.31,1.38-1.15,1.08.18.86.87.7,1.58-.35,1.54-.78,3.06-1.02,4.61-.28,1.85.41,2.56,2.28,2.58,2.75.03,5.5.06,8.25.08,3.51.03,7.02.01,10.53.1,1.03.03,1.18-.6,1.26-1.29.13-1.09-.76-.57-1.22-.65-.45-.08-.94-.06-1.4-.01-1.52.17-1.84-.62-1.57-1.91.27-1.31.53-2.63.8-3.95.23-1.09.16-2.4.77-3.19.74-.96,2.18-.22,3.3-.39.11-.02.23,0,.35-.02.72-.05.8-.6.84-1.13.07-.77-.54-.6-.97-.62-.58-.03-1.17-.01-1.75,0-.74,0-1.31-.21-1.17-1.1.11-.72-.05-1.23-.86-1.03-.96.23-2.49-.8-2.8.83-.25,1.34-.92,1.37-1.93,1.31-.93-.06-1.87-.05-2.8-.07-2.13-.72-4.3-.36-6.45-.18-.08,0-.14.29-.21.45-.93.03-1.87.06-2.8.1-.88-.52-1.75-.82-2.47.25Zm-37.9-9.09c2.79.24,5.58.44,8.36.75,2.79.31,5.58.71,8.04,2.21,1.69,1.03,1.97,2.38.88,4-1.15,1.71-2.79,2.85-4.76,4.02.29-1.84.88-3.32.9-5.13-1.63,1.11-3.06,2.19-4.31,3.48-.56.58-1.36,1.16-1.33,2,.11,3.53.1,7.07.72,10.59.92-2.18,1.84-4.33,2.43-6.57.5-1.93,1.41-2.85,3.47-3.09,2.72-.32,5.36-1.19,7.94-2.13,1.97-.72,3.93-1.53,5.5-3.01,1.68-1.58,1.59-2.99-.27-4.33-1.92-1.39-4.1-2.23-6.38-2.81-7.06-1.78-14.14-1.24-21.2,0Zm65.4,10.93c.37-.04.73-.03,1.06-.13.72-.21,1.55-.41,1.6-1.35.07-1.08-.83-1.27-1.61-1.49-.33-.1-.7-.19-1.02-.13-1.1.19-2.65.09-2.59,1.65.06,1.42,1.51,1.3,2.56,1.45Z"/>
      <path class="cls-11" d="m60.42,35.52c-1.39-1.21-2.8-2.4-4.15-3.65-.63-.58-1.3-1.19-1.2-2.21-2.33,1.08-3.65.56-4.67-1.7-.8-1.78-.86-3.73-1.39-5.58-.45-1.57-.73-3.18-1.46-4.66-.15-.3-.23-.68-.23-1.02,0-.79-.22-1.99.58-2.17.96-.21.51,1.04.78,1.6.47.96,1.03,1.81,1.76,2.58,1.68,1.78,3.33,3.59,4.14,6.19.13-.24.21-.32.2-.39-.78-5.76,3.34-8.19,7.41-10.3,4.57-2.37,9.64-2.55,14.71-2.23,0,.1-.02.2-.04.29-.6-.02-1.16.14-1.69.41-.84.29-1.55.72-2.2,1.9.97-.58,1.59-.94,2.2-1.31.24.02.47.04.71.07-.42.74-1.43.69-1.89,1.38-.32.31-.64.63-.96.94-.26.22-.45.47-.35.83l-.02-.03c-.62.11-.67.59-.69,1.09h.02c-.79,1.3-.12,2.3.7,3.27l.57.63c.17.12.33.24.5.36h-.02c2.51,1.97,6.31,1.66,8.15-.68l-.03-.03c.27.03.37-.11.36-.36l.02.03c1.4-1.07,1.38-2.28.34-3.58h.01c.06-.32,0-.59-.36-.71h.01c-.04-1.15-.93-1.64-1.73-2.19-1.41-.99-3.04-.89-4.64-.94,1.17-1.02,2.48-.22,3.72-.28.35.15.7.3,1.05.44.13.12.27.25.4.03.02-.04-.12-.17-.18-.25-.21-.11-.43-.23-.64-.34,0-.3-.88-.28-.4-.59.81-.52,6.22,1.1,6.83,1.93.06.09-.08.32-.12.49-.88.21-.82,1.12-1.23,1.68l.03.02c-1.47.87-1.48,2.8-.03,4.29v-.02c.87,2.85,5.53,4.32,7.81,2.46h-.02c.12-.12.24-.24.37-.37h0c1.23-.9.25-2.45,1.02-3.49,0,.52-.09,1.05.2,1.54,2.61,4.25-.21,10.02-3.44,12.14-1.54,1.01-3.3,1.14-5.01,1.33-8.4.97-16.82,1.66-25.29,1.1-.17-.01-.35.02-.52.03h.01Zm8.8-18.31c.05-.29-.09-.39-.36-.36l.03-.02c-.18-.77-.89-.84-1.47-1.06-1.81-.69-3.55-.23-5.26.42,1.2-1.71,3.12-.75,4.75-1.2-2.88-1.32-6.57.24-7.47,3.07-.11.35-.14.68.24.9l.09.08c-.68,4.68,2.17,5.63,5.07,5.13,1.26-.22,2.47-.68,3.41-1.65.09-.1.17-.19.26-.29,1.65-1.71,1.96-3.09,1.06-4.68h0c0-.23-.07-.41-.36-.36h.01Zm-16.88,10.55c.06.06.03.36.22.09-.08-.02-.16-.05-.25-.07,0-.52,0-1.04,0-1.57,0-1.18.66-.95,1.41-.51-.5-3.52-3.53-5.17-5.25-8.06-.02,1.59.71,2.48,1.5,3.35.74.82,1.48,1.65,2.19,2.5.24.29.58.62.06,1.02-1.45,1.11-.78,2.19.1,3.25Zm38.25-.36c-2.39.48-4.78,1-7.18,1.43-1.2.21-2.22.08-2.89-1.29-.66-1.35-1.99-1.48-3.33-.94-.99.4-1.79,1.09-2.55,1.82-.84.81-1.82,1.2-3,1.18-3.68-.08-7.34-.45-11-.77-.49-.04-.98-.75-1.66.05.33.12.57.27.82.3,4.22.51,8.43,1.27,12.71,1.07,1.13-.05,2.01.21,2.8,1.06,1.9,2.05,2.93,2.02,4.63-.15.86-1.1,1.82-1.57,3.25-1.68,2.58-.2,5.16-.65,7.45-2.04.41-.14,1.02.25,1.29-.52-.65-.25-.97.18-1.33.47Z"/>
      <path class="cls-6" d="m57.96,49.92c-.01-1.36.17-2.63.73-3.95.72-1.68.39-3.54-.39-5.3,0,1.21,0,2.42,0,3.64,0,1.45-.57,2.36-2.1,2.73-2.35.57-4.61.49-6.89-.27-.48-.16-.73-.33-.55-.85,0,0-.03.03-.03.03,1.95-1.8,2.42-5.29,5.98-5.24,2.07-2.55,4.73-1.63,7.32-1.28,6.1.83,12.22.67,18.32.05,4.17-.43,8.36-.79,12.28-2.46.77-.33.94.23,1.04.75.46,2.41.6,4.86.75,7.31.04.67-.2.97-.92.85-.81-.13-1.62-.18-2.44-.26-.08-1.68.99-2.76,2.01-3.86h0c.32-.16.45-.42.38-.78-.74-1.49-1.57-.15-2.35-.06-.58.07-.76-.45-1.09-.74-1.83-1.58-3.59-1.4-5.07.51-.79,1.02-1.02,2.19-1,3.43.01.65.06,1.28-.58,1.7-1.95.27-3.91.56-5.86.81-1.69.21-3.41.35-4.24,2.21-.04.1-.16.24-.24.24-3.45-.11-6.32,2.86-10.07,1.72-1.57-.48-3.23-1.24-5-.92l.02.02Z"/>
      <path class="cls-11" d="m104.32,40.41c-1.27-3.21.9-6.49-.19-9.72-.14-.41.12-.95.66-1.1.62-.17,1.14.03,1.6.47.8.77.99,1.84,1.41,2.79.22.51.29.46.96.34,3.37-.61,5.9-2.72,8.68-4.39.51-.31,1.1-.6,1.61-.12.57.53.33,1.18.02,1.78-.66,1.27-1.65,2.25-2.66,3.23-.74.72-1.64,1.34-1.93,2.54,1.95.06,3.76-.48,5.61-.7.65-.08,1.57-.38,1.9.41.34.82-.54,1.3-1.07,1.59-3.32,1.83-6.66,3.62-10.06,5.31-1.61.8-3.18.35-4.6-.71-.38-.28-.56-.98-1.26-.69v.02c.26-.68.14-1.12-.71-1.07h.02Zm3.18-.67c1.45-.66,1.8-1.8,1.45-3.25-.31,1.14-.91,2.13-1.58,3.08-.15.1-.52.1-.36.35.13.21.38.03.5-.19Z"/>
      <path class="cls-11" d="m48.73,45.95s.03-.03.03-.03c-2.56,1.25-5.05,1.21-7.75.17-1.25-.48-2.88-.12-4.29-.56-.5-.16-1.05-.37-1.08-1.01-.03-.58.36-.96.82-1.25,1.07-.67,2.31-.98,3.5-.94,1.05.03,1.21-.52,1.51-1.22.34-.79-.36-.97-.71-1.29-.78-.7-1.65-1.29-2.47-1.96-.52-.42-.93-.96-.65-1.67.25-.64.87-.68,1.47-.73,2.08-.15,3.67,1.01,5.33,1.97,1.71.99,2.03.89,2.65-1.12.24-.78.39-1.59.67-2.35.2-.55.51-1.16,1.22-1.06.57.08.79.63.91,1.17.1.46.35.93.28,1.36-.5,3.22,1.28,6.78-1.42,9.68-.14.15-.02.54-.02.82Zm-.93-4.17c-.06-.09-.13-.17-.19-.26-.19.17-.1.28.07.39.05.95.1,1.9.17,3.13.91-1.3.76-2.29-.05-3.25Z"/>
      <path class="cls-3" d="m60.41,35.51c2.29,1.01,4.76.92,7.15.96,7.19.12,14.34-.5,21.43-1.73,1.22-.21,2.39-.64,3.35-1.41.72-.58,1.28-.73,1.87.1.64.9.22,1.59-.52,2.07-1.68,1.09-3.6,1.68-5.54,2.05-8.01,1.56-16.1,1.8-24.22,1.22-2.26-.16-4.56-.27-6.67-1.19-1.62-.7-1.7-1.74-.41-2.74.59-.45,1.07-.39,1.53.08.58.59,1.24.81,2.04.6,0,0-.01-.01-.01-.01Z"/>
      <path class="cls-6" d="m105,41.45c.84,1.3.23,1.92-1.02,2.39-2.37.88-4.72,1.67-7.31,1.17-.74-.14-1.13-.34-1.16-1.18-.1-2.33-.4-4.64-1.19-6.85-.1-.28-.24-.53.02-.79.32-.32.65-.19.96-.02,2.21,1.2,4.49,1.93,7.04,1.16.62-.19.52.42.64.78.29.85.32,1.87,1.34,2.3,0,0-.02-.01-.02-.01-.02.53.18.91.71,1.07v-.02Zm-5.77-3.31c.35,1.15.08,2.34.32,3.96.79-1.74.88-2.93-.32-3.96Z"/>
      <path class="cls-15" d="m92.71,17.23c.24.35.47.7.71,1.06h0c0,.23,0,.46.01.69.85,1.29-.14,2.6.02,3.89,0,0,0-.01,0-.01-.12.12-.24.25-.37.37,0,0,.02,0,.02,0-1.98.5-3.9.4-5.65-.75-.76-.5-1.44-1.14-2.15-1.71,0,0,0,.02,0,.02-.07-1.43-.71-2.87.03-4.29,0,0-.03-.02-.03-.02,1.79-.51,3.57-1.37,5.43-.25.41.25.85.34,1.33.27h-.02c-.02.47.2.72.68.74Zm-3.17,2.47c-.3-.6-.71-1.16-1.54-1.04-.69.1-1.25.54-1.17,1.26.08.77.68,1.22,1.48,1.12.7-.08,1.12-.54,1.23-1.35Z"/>
      <path class="cls-5" d="m57.94,49.91c1.68,1.31,3.77,1.25,5.69,1.72.49.12,1.05-.05,1.53.39-.68.8-1.38,1.55-2,2.37-.36.47-.77.46-1.23.35-.74-.17-1.47-.38-2.2-.57-1.7-.46-2.88-2.48-2.36-4.11.03-.1.39-.09.6-.14,0,0-.02-.02-.02-.02Z"/>
      <path class="cls-11" d="m99.28,16.08c-.63-.18-.65-.2-.4-1.1.15-.53.14-1.28.96-1.24.85.05.93.72.96,1.4.08,1.88-.91,3.31-1.91,4.76-.46.67-1.33,1.21-.92,2.25l.02-.02c-.92-.39-.7.91-1.38.91-.99-1.2-.75-2.2.37-3.22,1.09-.99,2.38-1.89,2.48-3.59.27-.27.38-.8.14-.86-.37-.09-.19.46-.33.7Z"/>
      <path class="cls-11" d="m73.38,9.46c-.11-2.04-.23-4.08-.33-6.12-.02-.47-.29-.68-.66-.93-.79-.51-.88-1.24-.24-1.92.54-.59,1.26-.66,1.89-.13.7.59.81,1.34.03,1.92-.65.48-.59.98-.49,1.67.27,1.96.42,3.94.63,5.91.03.31.44.66-.05.88-.23.11-.62.1-.83-.02-.42-.25-.08-.61,0-.92.03-.11.04-.23.06-.34Z"/>
      <path class="cls-8" d="m87.1,45.61c-.57.16-.85-.19-1.1-.6-.11-.5-.14-1.04-.36-1.49-.35-.71-.18-1.4.35-1.71.64-.36,1.22-1.44,2.22-.6-.08,1.05-.14,2.08,1.44,1.29.2.16.41.32.61.48-.1.87-.95,1.04-1.42,1.55-.5.56-1.58.08-1.74,1.08Z"/>
      <path class="cls-12" d="m83.35,45.85c.64-.42.59-1.05.58-1.7-.03-1.24.21-2.41,1-3.43,1.48-1.91,3.23-2.1,5.07-.51.33.29.51.81,1.09.74-.59,1.23.93.24.91.87-.34.47-.69.93-1.32,1.02-.25-.56-.23-1.34-1.11-1.4h.01c-.67-1.39-1.74-1.79-2.99-1.1-1.66.91-2.32,3-1.68,5.32-.52.06-1.03.12-1.55.18Z"/>
      <path class="cls-11" d="m97.97,22.16c.28-.18.56-.35,1.21-.76-.97,2.78-1.13,5.43-2.18,7.86-.2.46-.49,1.08-1.14.79-.64-.29-.13-.82,0-1.21.77-2.21.59-4.73,2.12-6.7,0,0-.02.02-.02.02Z"/>
      <path class="cls-6" d="m59.45,54.89c.76.55,2.31-.16,2.56,1.04.12.55-.16,2.18-1.33,2.16-.98-.02-2.5-.19-2.01-2,.12-.46-.36-1.28.79-1.2Z"/>
      <path class="cls-10" d="m90.66,42.85c.63-.09.98-.55,1.32-1.02.36,0,.72-.02,1.08-.03-1.02,1.1-2.09,2.18-2.01,3.86-1.31-.54-2.64.12-3.96-.04.16-1,1.24-.53,1.74-1.08.47-.52,1.31-.69,1.42-1.56.14-.04.27-.09.41-.13Z"/>
      <path class="cls-14" d="m84.9,45.67c-.64-2.32.02-4.41,1.68-5.32,1.25-.69,2.32-.29,2.99,1.11l-1.36-.25c-1-.84-1.58.23-2.22.6-.53.3-.7,1-.35,1.71.22.45.25.99.36,1.49-.44.1-.55.74-1.1.66Z"/>
      <path class="cls-1" d="m92.05,16.49c-.48.08-.92-.02-1.33-.27-1.87-1.12-3.64-.26-5.43.25.41-.56.35-1.47,1.23-1.68.22,0,.44.01.67.02.46.56,1.08.23,1.63.3,1.21.17,2.43.29,3.24,1.38Z"/>
      <path class="cls-11" d="m92.05,16.49c-.81-1.09-2.03-1.21-3.24-1.38-.55-.08-1.17.25-1.63-.3,1.38-.08,2.76-.21,4.07.4.57.26,1.24.45,1.09,1.31-.11,0-.21-.01-.32-.03h.02Z"/>
      <path class="cls-1" d="m93.44,22.87c-.16-1.3.84-2.6-.02-3.89.47-.2,1-.57,1.04.39-.76,1.04.21,2.59-1.02,3.5Z"/>
      <path class="cls-1" d="m75.17,13.29c-.61.36-1.22.73-2.2,1.31.65-1.18,1.36-1.62,2.2-1.9,0,.2,0,.4,0,.6Z"/>
      <path class="cls-1" d="m92.03,16.49c.11.02.21.03.32.03.33.03.72.03.81.42.06.27-.25.27-.46.29-.47-.02-.7-.27-.68-.74Z"/>
      <path class="cls-1" d="m76.86,12.29c.03-.1.04-.19.04-.29.17-.25.39-.43.69-.29.1.05.22.31.18.36-.22.33-.59.21-.91.22Z"/>
      <path class="cls-1" d="m93.42,18.29c.05-.26.03-.56.43-.54.04,0,.11.07.11.11.03.39-.28.38-.54.43,0,0,0,0,0,0Z"/>
      <path class="cls-1" d="m80.21,12.96c.21.11.43.23.64.34-.08.07-.15.15-.22.23-.35-.15-.7-.3-1.05-.44.21-.04.42-.08.63-.12Z"/>
      <path class="cls-13" d="m93.78,71.41c-1.15-.62-1.23-1.67-.91-2.72.62-2.05,1.36-4.06,2.05-6.09.31-.93,1.22-.76,1.89-1,.7-.25,1.46-.34,2.19-.51l.11.11c-.33,2.39-1.5,4.54-1.92,6.9-.22.6-.46,1.2.44,1.45h.7c.25.02.43-.06.39-.36-.04-2.07.67-3.95,1.53-5.77.71-1.5,2.18-2.01,3.7-2.33,1.99,0,3.97-.01,5.96-.02.03,1.43-.04,1.49-1.8,1.49-4.53.01-4.02-.57-5.36,4.09-.06.22-.19.45-.17.67.04.54-.57,1.36.52,1.52.76.11,1.35-.05,1.57-.96.28-1.19.66-2.36,1.04-3.52.25-.77,2.19-1.32,3.16-.85.9.44.19,1.08.06,1.62-.25,1.02-.56,2.02-.84,3.04-.16.57-.73,1.26.31,1.55.94.26,1.32-.21,1.52-1.14.53-2.49,1.16-4.95,1.76-7.43,2.42-.15,4.84-.15,7.26.04,1.1.86.98,2.01.74,3.18-.29,1.36-.61,2.72-.85,4.09-.07.43-.54,1.07.32,1.27.76.18,1.02-.28,1.15-.94.35-1.71.81-3.4,1.08-5.12.18-1.15.7-1.93,1.68-2.46,1.68-.02,3.37-.03,5.05-.07,1.41-.03,2.06.6,1.82,2.02-.22,1.3-.49,2.58-.73,3.88-.23.26-.46.53-.69.79-.15.09-.3.19-.44.28-.87,0-1.75.03-2.62.02-.36,0-.91.15-.88-.51.02-.39-.04-.99.42-1.05,2.05-.26,1.27-2.05,1.74-3.15.23-.55-.02-1.04-.72-1.09-.59-.04-1.16-.08-1.34.73-.42,1.87-.91,3.73-1.36,5.59-.15.63-.12,1.21.75,1.22,2.06.01,4.12,0,6.61,0-.91-.93-.59-1.73-.77-2.45.5-2.22.99-4.44,1.49-6.66.29-.5.13-.67-.41-.57-6.43-.02-12.86-.03-19.29-.05-.59,0-1.18,0-1.78,0-1.52-.02-3.05-.04-4.57-.06.18-.56.74-.27,1.08-.49.59-.07,1.18-.14,1.76-.21.82-.04,1.63-.07,2.45-.11.74.18,1.42-.07,2.11-.26.93-.03,1.87-.06,2.8-.09.84.14,1.66.03,2.47-.25.93-.03,1.87-.06,2.8-.1,2.22-.09,4.45-.18,6.67-.27.93.02,1.87,0,2.8.07,1.01.07,1.67.03,1.93-1.31.31-1.63,1.83-.61,2.8-.83.82-.19.97.32.86,1.03-.13.89.43,1.1,1.17,1.1.58,0,1.17-.02,1.75,0,.43.02,1.04-.14.97.62-.04.53-.13,1.08-.84,1.13-.12,0-.24,0-.35.02-1.12.17-2.56-.57-3.3.39-.61.79-.55,2.11-.77,3.19-.27,1.31-.53,2.63-.8,3.95-.27,1.29.05,2.08,1.57,1.91.46-.05.95-.07,1.4.01.46.08,1.35-.44,1.22.65-.08.69-.23,1.32-1.26,1.29-3.51-.09-7.02-.07-10.53-.1-2.75-.02-5.5-.05-8.25-.08-1.87-.02-2.56-.73-2.28-2.58.24-1.55.67-3.08,1.02-4.61.16-.71.38-1.4-.7-1.58-.95-.16-1.21.38-1.38,1.15-.48,2.16-1.02,4.32-1.51,6.48-.15.67-.33,1.17-1.22,1.15-1.93-.06-3.87.09-5.79-.04-.96-.06-1.91-.9-2.78.19-3.15-.04-6.3-.08-9.45-.13Z"/>
      <path class="cls-13" d="m21.46,71.07c-1.43-.82-1.22-2.07-.83-3.33.61-1.97,1.26-3.94,1.89-5.9.51-.8,1.36-.54,2.08-.69h2.61c-.77,2.19-1.5,4.15-2.14,6.14-.18.56-.63,1.39.1,1.74.64.31,1.45.27,2.06-.45,1.7-2,3.45-3.96,5.27-6.04-1.19-.61-2.39-.04-3.45-.41.03-1.07.55-1.41,1.57-1.39,2.68.06,5.37.02,8.42.02-2.07,2.41-3.95,4.59-5.83,6.77-.33.39-.94.75-.74,1.3.23.63.92.24,1.4.33,2.11.39,3.64-.35,4.91-2.13,1.15-1.61,2.58-3.01,3.99-4.62-.79-.39-1.55-.26-2.24-.19-1.53.14-1.37-.56-.86-1.52,3.17.02,6.33.04,9.5.06-1.97,2.3-3.94,4.59-5.91,6.89-.29.34-.8.66-.61,1.17.21.57.81.33,1.24.34,1.05.02,2.25.31,3.11-.09.97-.46.56-1.86.82-2.83.71-2.69,1.48-5.3,4.9-5.48,2.03-.1,4.06-.02,6.14-.02-.17,1.06-.65,1.58-1.66,1.45-.11-.01-.23,0-.35,0-4.58.02-4.95.33-5.58,4.85-.07.5-.52,1.22.42,1.42.78.16,1.39-.12,1.65-.92.35-1.11.64-2.24,1-3.35.33-1.03,2.62-1.77,3.42-1.12.48.39.12.86.02,1.28-.39,1.62-1.25,3.14-1.13,4.88-.11.65-.82,1.04-.74,1.77-.78-.11-1.71.5-2.31-.54-.25-.42-.62-.13-.81.17-.45.72-1.2.54-1.85.67-9.83-.07-19.66-.14-29.48-.22Z"/>
      <path class="cls-13" d="m77.65,49.86c7.06-1.25,14.14-1.78,21.2,0,2.28.57,4.46,1.41,6.38,2.81,1.86,1.34,1.95,2.76.27,4.33-1.57,1.47-3.53,2.29-5.5,3.01-2.58.94-5.22,1.81-7.94,2.13-2.06.24-2.97,1.16-3.47,3.09-.58,2.24-1.51,4.4-2.43,6.57-.63-3.52-.62-7.06-.72-10.59-.03-.84.77-1.42,1.33-2,1.25-1.29,2.68-2.37,4.31-3.48-.03,1.81-.62,3.29-.9,5.13,1.96-1.18,3.61-2.32,4.76-4.02,1.1-1.63.81-2.98-.88-4-2.46-1.5-5.25-1.91-8.04-2.21-2.78-.31-5.57-.5-8.36-.75Z"/>
      <path class="cls-13" d="m21.77,61.07c-2.06.39-4.12.8-6.18,1.17-.68.12-.72.64-.89,1.14-.95,2.71-1.93,5.41-3.31,8.05-.16-3.41-.32-6.82-.49-10.23-.03-.59.3-1,.63-1.4,1.37-1.7,3.08-2.97,5-4.27.19,1.77-.75,3.2-.73,4.94,1.91-1.08,3.54-2.24,4.66-3.99,1.04-1.61.8-2.79-.85-3.85-2.64-1.7-5.71-1.91-8.7-2.36-2.66-.4-5.33-.42-8.02-.56,2-.82,4.15-.87,6.25-1.03,6.21-.46,12.38-.43,18.29,1.95,1.25.5,2.45,1.1,3.51,1.95,1.57,1.25,1.65,2.54.23,3.98-1.17,1.18-2.63,1.93-4.14,2.56-.96.41-1.93.81-2.89,1.21-.82.13-1.64.28-2.36.74Zm3.72-2.7c.4-.04.81-.03,1.2-.14.73-.22,1.54-.5,1.58-1.39.03-.84-.77-1.07-1.41-1.34-.91-.38-1.82-.31-2.71.04-.66.26-1.37.53-1.32,1.4.06.84.77,1.1,1.45,1.3.38.11.8.09,1.22.14Z"/>
      <path class="cls-8" d="m55.92,70.99c-.08-.73.63-1.12.74-1.77,2.31-1.64,4.45-3.53,6.93-4.93.27.15.34.4.35.68-.26.21-.51.43-.77.64-.23.12-.46.24-.7.36-.39.07-.63.3-.75.67-2.05.79-3.45,2.32-4.89,3.91.53.38.8.29,1.09.23,4.96-1.07,9.43-3.36,13.81-5.79,1.45-.81,3.09-1.37,4.22-2.71.81-.15,1.53-.46,2.07-1.11.46-.08.8-.32,1.05-.71,2.85-1.25,5-3.38,7.04-5.64.3-.33.69-.82.38-1.24-.32-.44-.85-.12-1.29.02-1.74.53-3.34,1.35-4.9,2.25-.08-.21-.17-.42-.25-.63,1.59-.86,3.16-1.77,4.92-2.27.78-.22,1.69-.66,2.27.15.64.89-.12,1.67-.66,2.33-1.27,1.54-2.69,2.91-4.43,3.93-.46.34-.91.69-1.37,1.03-.34.14-.58.38-.7.73-.84,0-1.03.56-1.02,1.25,0,.81-.25,1.55-.6,2.27-.29-.16-.6-.31-.88-.49-.41-.27-.37-1.22-1.23-.79-.65.33-.52,1.01-.6,1.52-.27,1.71,1.08.94,1.82,1.1-.93,1.37-2.19,2.11-3.87,2.06.04-.84.38-1.86-.95-2-1.26-.14-1.77.61-1.83,1.77-.8.47-1.55-1.56-2.37-.05-.31.02-.6.07-.77.39-.55-.1-1.01.12-1.46.39-2.3.97-4.57,2.01-7.01,2.55-1.13.25-2.28.5-3.39-.12Z"/>
      <path class="cls-12" d="m63.93,64.97c0-.28-.08-.53-.35-.68-.67-3.32-.17-6.38,2.14-8.96,3.45-3.85,9.2-4.18,13.17-.79.35.3.64.69,1.16.7.08.21.17.42.25.63.16.23.31.46.47.69.9,1.04.18,1.3-.71,1.47-.19-.29-.38-.58-.56-.88-3.06-5.18-10.39-5.34-13.58-.25-1.86,2.97-1.71,6.05-.18,9.12-.87,1.3-1.34.57-1.77-.35l-.05-.71Z"/>
      <path class="cls-12" d="m66.32,68.56c.45-.28.91-.49,1.46-.39,2.41,2.11,5.12,2.67,8.08,1.39,4-1.74,5.23-5.04,4.92-9.13.46-.35.91-.69,1.37-1.03.12,2.64.07,5.23-1.51,7.56-3.12,4.6-9.68,5.9-14.32,1.61Z"/>
      <path class="cls-9" d="m143.05,60.79c-1.05-.15-2.5-.03-2.56-1.45-.06-1.56,1.49-1.47,2.59-1.65.33-.05.69.03,1.02.13.78.23,1.68.42,1.61,1.49-.06.94-.88,1.14-1.6,1.35-.33.1-.69.09-1.06.13Z"/>
      <path class="cls-7" d="m21.46,71.07c9.83.07,19.66.14,29.48.22-.5.6-1.19.36-1.8.36-8.63.01-17.26.02-25.89-.01-.61,0-1.45.42-1.8-.56Z"/>
      <path class="cls-7" d="m93.78,71.41c3.15.04,6.3.08,9.45.13-.13.41-.45.48-.83.48-2.57,0-5.14,0-7.71,0-.45,0-.81-.09-.91-.6Z"/>
      <path class="cls-7" d="m49.19,60.75c-3.17-.02-6.33-.04-9.5-.06.1-.36.31-.61.72-.61,2.65,0,5.3,0,7.95,0,.48,0,.75.22.83.68Z"/>
      <path class="cls-7" d="m105.34,60.1c1.52.02,3.05.04,4.57.06,0,.3,0,.61,0,.91-1.99,0-3.97.01-5.96.02.01-.96,1.1-.41,1.38-.98Z"/>
      <path class="cls-7" d="m127.48,58.33c-2.22.09-4.45.18-6.67.27.07-.16.13-.44.21-.45,2.16-.18,4.32-.55,6.45.18Z"/>
      <path class="cls-7" d="m21.77,61.07c.72-.46,1.54-.61,2.36-.74.34.17.48.45.48.82-.72.15-1.58-.1-2.08.69-.37-.14-.62-.4-.76-.77Z"/>
      <path class="cls-7" d="m118.01,58.7c-.8.28-1.62.39-2.47.25.72-1.08,1.58-.77,2.47-.25Z"/>
      <path class="cls-7" d="m112.74,59.04c-.69.19-1.38.44-2.11.26.58-1.12,1.34-.71,2.11-.26Z"/>
      <path class="cls-7" d="m108.18,59.41c-.59.07-1.18.14-1.76.21.48-.98,1.1-.75,1.76-.21Z"/>
      <path class="cls-7" d="m97.63,69.54c-.9-.25-.66-.86-.44-1.45.6.34.41.93.44,1.45Z"/>
      <path class="cls-13" d="m99,61.08c.07-.04.14-.07.21-.11-.03.07-.07.15-.1.22,0,0-.11-.11-.11-.11Z"/>
      <path class="cls-7" d="m98.72,69.19c.04.3-.13.37-.39.36.13-.12.26-.24.39-.36Z"/>
      <path class="cls-15" d="m73.25,21.47c-.19-.21-.38-.42-.57-.63.17-1.18-.92-2.09-.7-3.29,0,0-.02.01-.02.01.52-.18.77-.53.69-1.09,0,0,.02.03.02.03.37-.17.38-.5.35-.83.32-.31.64-.63.96-.94.72.15,1.36-.2,2-.41,1.87-.61,3.49-.21,4.93,1.1.42.38.73.9,1.32,1.08,0,0-.01,0-.01,0-.02.31.03.58.36.71,0,0-.01,0-.01,0,.42,1.24.02,2.41-.34,3.58,0,0-.02-.03-.02-.03-.12.12-.24.24-.36.36,0,0,.03.03.03.03-2.63,1.29-5.32,1.8-8.15.67,0,0,.02.01.02.01-.17-.12-.33-.24-.5-.36Zm3.88-4.23c-.87-.03-1.29.39-1.27,1.26.01.78.39,1.18,1.18,1.19.75,0,1.23-.27,1.27-1.09.04-.83-.26-1.35-1.17-1.36Z"/>
      <path class="cls-15" d="m68.51,22.24c-.09.1-.17.19-.26.29-1.07-.18-1.87.57-2.81.82-2.13.57-3.85.24-4.72-1.12-1.07-1.66-.42-3.09.7-4.42.28-.34.42-.69.36-1.12.1-.06.2-.12.3-.18,2.3-.41,4.59-.73,6.82.32,0,0-.03.02-.03.02.12.12.24.24.36.36,0,0-.01,0-.01,0,.12.12.24.24.36.36,0,0,0,0,0,0,.43,1.74-.87,3.08-1.06,4.68Zm-3.05-3.92c-.84.17-1.24.6-1.2,1.46.04.9.56,1.29,1.33,1.22.69-.06,1.13-.59,1.11-1.32-.02-.8-.5-1.24-1.24-1.36Z"/>
      <path class="cls-1" d="m90.64,27.45c-2.29,1.39-4.87,1.83-7.45,2.03-1.42.11-2.39.58-3.25,1.68-1.7,2.17-2.73,2.19-4.63.15-.8-.86-1.67-1.12-2.8-1.06-4.28.2-8.49-.57-12.71-1.07-.25-.03-.49-.17-.82-.3.68-.79,1.17-.09,1.66-.05,3.66.33,7.32.7,11,.77,1.19.02,2.16-.37,3-1.18.76-.73,1.56-1.42,2.55-1.82,1.34-.54,2.67-.41,3.33.94.67,1.37,1.69,1.5,2.89,1.29,2.4-.43,4.79-.95,7.18-1.43l.05.05Zm-16.29,2.08c.54.4.95.63,1.28.95q2.07,2.05,4.02-.13c.16-.17.29-.4.48-.5.72-.38.51-.78.19-1.35-.9-1.63-2.01-1.98-3.53-.92-.81.56-1.54,1.23-2.44,1.95Z"/>
      <path class="cls-1" d="m61.77,16.68c.07.43-.08.79-.36,1.12-1.12,1.33-1.77,2.77-.7,4.42.88,1.36,2.59,1.69,4.72,1.12.95-.25,1.75-1,2.81-.82-.93.97-2.15,1.43-3.41,1.65-2.9.5-5.75-.45-5.07-5.13.08-.14.18-.27.24-.41,0-.02-.12-.1-.18-.15l-.15.48c-.38-.22-.35-.56-.24-.9.9-2.83,4.59-4.39,7.47-3.07-1.63.46-3.55-.51-4.75,1.2,0,0,.02-.02.02-.02-.44-.12-.82.1-.9.47-.05.24.31.12.49.05Z"/>
      <path class="cls-1" d="m52.35,27.75c-.88-1.06-1.54-2.13-.1-3.25.52-.4.18-.73-.06-1.02-.71-.85-1.45-1.68-2.19-2.5-.78-.87-1.51-1.76-1.5-3.35,1.72,2.89,4.74,4.54,5.25,8.06-.75-.44-1.42-.66-1.41.51,0,.52,0,1.04,0,1.57l.02-.03Z"/>
      <path class="cls-1" d="m82.23,16.5c-.59-.17-.9-.7-1.32-1.08-1.44-1.31-3.05-1.71-4.93-1.1-.64.21-1.27.56-2,.41.46-.69,1.46-.64,1.89-1.38,0,0-.02.01-.02.01,1.6.05,3.23-.05,4.64.94.8.56,1.69,1.04,1.73,2.2Z"/>
      <path class="cls-1" d="m73.73,21.81c2.83,1.13,5.52.62,8.15-.67-1.85,2.34-5.65,2.65-8.15.67Z"/>
      <path class="cls-1" d="m85.3,20.77c.72.57,1.39,1.21,2.15,1.71,1.75,1.15,3.67,1.25,5.65.75-2.28,1.86-6.94.4-7.8-2.46Z"/>
      <path class="cls-1" d="m68.89,16.82c-2.23-1.05-4.52-.73-6.82-.32.04-.11.07-.22.11-.34,0,0-.02.02-.02.02,1.71-.65,3.45-1.11,5.26-.42.57.22,1.28.28,1.47,1.06Z"/>
      <path class="cls-1" d="m85.32,16.49c-.74,1.43-.1,2.86-.03,4.29-1.45-1.49-1.43-3.42.03-4.29Z"/>
      <path class="cls-1" d="m68.51,22.24c.19-1.6,1.49-2.94,1.06-4.68.91,1.59.59,2.97-1.06,4.68Z"/>
      <path class="cls-1" d="m82.23,20.79c.36-1.17.75-2.34.34-3.58,1.05,1.3,1.06,2.51-.34,3.58Z"/>
      <path class="cls-1" d="m71.98,17.55c-.23,1.19.87,2.1.7,3.29-.82-.97-1.49-1.97-.7-3.29Z"/>
      <path class="cls-1" d="m90.6,27.39c.36-.29.68-.71,1.33-.47-.27.77-.88.38-1.29.52,0,0-.05-.05-.05-.05Z"/>
      <path class="cls-1" d="m72.65,16.48c.08.56-.17.91-.69,1.09.02-.5.07-.98.69-1.09Z"/>
      <path class="cls-1" d="m82.58,17.21c-.33-.13-.38-.4-.36-.71.36.12.42.39.36.71Z"/>
      <path class="cls-1" d="m73.02,15.68c.03.34.02.66-.35.83-.1-.37.09-.62.35-.83Z"/>
      <path class="cls-1" d="m52.33,27.78c.08.02.16.05.25.07-.2.27-.16-.04-.22-.09,0,0-.02.03-.02.03Z"/>
      <path class="cls-1" d="m80.85,13.3c.06.09.2.22.18.25-.13.22-.27.1-.4-.03.07-.08.14-.15.22-.23Z"/>
      <path class="cls-1" d="m73.25,21.47c.17.12.33.24.5.36-.17-.12-.33-.24-.5-.36Z"/>
      <path class="cls-1" d="m93.08,23.23c.12-.12.24-.25.37-.37-.12.12-.24.25-.37.37Z"/>
      <path class="cls-1" d="m81.85,21.12c.12-.12.24-.24.36-.36,0,.25-.09.4-.36.36Z"/>
      <path class="cls-1" d="m69.58,17.56c-.12-.12-.24-.24-.36-.36.3-.06.36.13.36.36Z"/>
      <path class="cls-1" d="m69.22,17.21c-.12-.12-.24-.24-.36-.36.27-.03.41.07.36.36Z"/>
      <path class="cls-14" d="m93.06,41.8c-.36,0-.72.02-1.08.03.02-.63-1.5.36-.91-.87.79-.08,1.61-1.43,2.36.06-.28.19-.42.45-.38.79h0Z"/>
      <path class="cls-10" d="m93.06,41.81c-.04-.34.1-.6.38-.79.08.36-.05.62-.38.79Z"/>
      <path class="cls-1" d="m107.36,39.57c.67-.95,1.27-1.94,1.58-3.08.35,1.45,0,2.59-1.45,3.25-.05-.06-.09-.11-.14-.17Z"/>
      <path class="cls-1" d="m107.49,39.74c-.12.21-.37.39-.5.19-.16-.25.21-.25.36-.35.04.06.09.11.14.17Z"/>
      <path class="cls-1" d="m47.8,41.78c.81.96.96,1.95.05,3.25-.07-1.23-.12-2.18-.17-3.13l.12-.13Z"/>
      <path class="cls-1" d="m47.68,41.91c-.17-.1-.26-.22-.07-.39.06.09.13.17.19.26,0,0-.12.13-.12.13Z"/>
      <path class="cls-15" d="m99.24,38.14c1.2,1.03,1.11,2.21.32,3.96-.24-1.61.03-2.81-.32-3.96Z"/>
      <path class="cls-12" d="m88.21,41.22l1.36.25s-.01-.01-.01-.01c.03.35.06.7.09,1.05-1.58.8-1.52-.23-1.44-1.29Z"/>
      <path class="cls-14" d="m89.64,42.5c-.03-.35-.06-.7-.09-1.05.88.06.86.83,1.11,1.4-.14.04-.27.08-.41.13-.2-.16-.41-.32-.61-.48Z"/>
      <path class="cls-4" d="m109.91,61.07c0-.3,0-.61,0-.91.59,0,1.18,0,1.78,0,0,.33,0,.65,0,.98-.59,2.47-1.23,4.94-1.76,7.43-.2.93-.58,1.4-1.52,1.14-1.04-.29-.47-.98-.31-1.55.28-1.01.59-2.02.84-3.04.13-.53.84-1.17-.06-1.62-.97-.48-2.91.08-3.16.85-.38,1.16-.75,2.33-1.04,3.52-.22.91-.81,1.07-1.57.96-1.09-.16-.48-.97-.52-1.52-.02-.22.11-.45.17-.67,1.34-4.66.84-4.07,5.36-4.09,1.76,0,1.83-.07,1.8-1.49Z"/>
      <path class="cls-7" d="m111.68,61.14c0-.33,0-.65,0-.98,6.43.02,12.86.03,19.29.05.14.19.27.38.41.57-.5,2.22-.99,4.44-1.49,6.66-.3,0-.55-.1-.69-.39.25-1.29.51-2.58.73-3.88.24-1.42-.41-2.05-1.82-2.02-1.68.04-3.37.05-5.05.07-1.37-.68-2.75-.67-4.13-.03-2.42-.2-4.84-.2-7.26-.04Z"/>
      <path class="cls-4" d="m129.2,67.05c.14.29.38.39.69.39.18.72-.14,1.52.77,2.45-2.49,0-4.55,0-6.61,0-.87,0-.9-.59-.75-1.22.44-1.87.93-3.72,1.36-5.59.18-.81.75-.77,1.34-.73.71.04.96.54.72,1.09-.47,1.09.32,2.88-1.74,3.15-.46.06-.4.67-.42,1.05-.03.66.51.5.88.51.87.02,1.75,0,2.62-.02.15-.09.3-.19.44-.28.23-.26.46-.53.69-.79Z"/>
      <path class="cls-4" d="m118.94,61.19c1.38-.64,2.76-.64,4.13.03-.98.53-1.51,1.32-1.68,2.46-.27,1.72-.73,3.41-1.08,5.12-.14.65-.4,1.12-1.15.94-.86-.2-.4-.85-.32-1.27.24-1.37.56-2.73.85-4.09.25-1.17.37-2.32-.74-3.18Z"/>
      <path class="cls-4" d="m131.38,60.78c-.14-.19-.27-.38-.41-.57.54-.1.7.07.41.57Z"/>
      <path class="cls-7" d="m128.51,67.84c-.15.09-.3.19-.44.28.15-.09.3-.19.44-.28Z"/>
      <path class="cls-9" d="m25.49,58.37c-.42-.04-.83-.03-1.22-.14-.68-.19-1.39-.45-1.45-1.3-.06-.87.66-1.14,1.32-1.4.89-.35,1.81-.42,2.71-.04.64.27,1.44.49,1.41,1.34-.03.9-.84,1.18-1.58,1.39-.38.11-.8.1-1.2.14Z"/>
      <path class="cls-14" d="m75.96,62.29c-1.13,1.33-2.76,1.9-4.22,2.7-4.39,2.43-8.85,4.72-13.81,5.79-.29.06-.56.15-1.09-.23,1.44-1.59,2.83-3.12,4.89-3.91.05.05.11.11.15.16-.25.48-1.08.84-.61,1.47.39.51,1.07.23,1.62.02.16-.06.32-.15.48-.21,4.34-1.59,8.3-3.98,12.44-5.98.05.06.1.12.15.19Z"/>
      <path class="cls-10" d="m80.77,60.42c.31,4.1-.92,7.39-4.92,9.13-2.96,1.29-5.67.73-8.08-1.39.16-.31.46-.37.77-.38,1.47.66,2.94,1.5,4.61,1.29,4.44-.56,6.86-3.39,6.91-7.92.13-.34.37-.59.7-.73Z"/>
      <path class="cls-14" d="m80.77,56.56c-.16-.23-.31-.46-.47-.69,1.56-.9,3.16-1.72,4.9-2.25.44-.13.97-.46,1.29-.02.31.42-.08.91-.38,1.24-2.04,2.26-4.19,4.39-7.04,5.64-.05-.05-.1-.11-.15-.16.68-1.07,1.93-1.44,2.8-2.29.63-.61,2.05-1.13,1.53-1.95-.51-.81-1.66.11-2.49.47Z"/>
      <path class="cls-14" d="m80.07,61.15c-.06,4.54-2.48,7.36-6.91,7.92-1.67.21-3.14-.63-4.61-1.29.82-1.51,1.57.52,2.37.05.88.6,1.79.87,2.78.24,1.68.05,2.94-.69,3.87-2.06.38-.39.8-.75.89-1.34.34-.72.6-1.46.6-2.27,0-.7.18-1.25,1.02-1.25Z"/>
      <path class="cls-9" d="m73.69,68.06c-.99.64-1.9.36-2.78-.24.06-1.16.57-1.9,1.83-1.77,1.33.14.99,1.16.95,2Z"/>
      <path class="cls-12" d="m78.45,64.67c-.09.58-.51.94-.89,1.34-.74-.16-2.09.61-1.82-1.1.08-.51-.05-1.19.6-1.52.86-.43.82.52,1.23.79.28.18.59.33.88.49Z"/>
      <path class="cls-14" d="m78.03,61.18c-.54.65-1.26.96-2.07,1.11-.05-.06-.1-.13-.15-.19.53-.66,1.26-.94,2.06-1.1.05.06.11.12.16.17Z"/>
      <path class="cls-14" d="m79.08,60.48c-.25.39-.59.63-1.05.71-.05-.06-.11-.12-.16-.17.15-.54.6-.63,1.06-.7.05.05.1.11.15.16Z"/>
      <path class="cls-14" d="m61.72,66.65c.12-.37.35-.61.75-.67.05.06.11.12.17.18-.13.36-.39.57-.76.66-.05-.06-.1-.11-.15-.16Z"/>
      <path class="cls-14" d="m63.93,64.97c.02.24.03.47.05.71-.24.02-.48.04-.71.06,0,0-.11-.13-.11-.13.26-.21.51-.43.77-.64Z"/>
      <path class="cls-14" d="m62.47,65.97c.23-.12.46-.24.7-.36,0,0,.1.13.1.13-.21.14-.42.27-.63.41-.06-.06-.11-.12-.17-.18Z"/>
      <path class="cls-8" d="m62.63,66.15c.21-.14.42-.27.63-.41.24-.02.48-.04.71-.06.44.91.91,1.65,1.77.35.36,0,.74.05.98-.33.3,0,.58-.07.75-.36.67,0,1.27-.16,1.71-.72.33-.24.65-.47.98-.71,1.12-.1,1.97-.84,2.95-1.25.82-.35-.02-.54-.07-.81.6,0,1.19-.03,1.71-.39.62-.07,1.21-.18,1.45-.87.33-.18.65-.36.98-.54.76.03,1.09-.4,1.16-1.11.39.08.78.15,1.04-.28.4-.02.65-.2.67-.63.89-.18,1.61-.43.71-1.47.83-.36,1.99-1.29,2.49-.47.51.82-.91,1.34-1.53,1.95-.87.84-2.12,1.21-2.8,2.29-.46.07-.91.15-1.06.69-.8.15-1.53.43-2.06,1.1-4.14,2-8.1,4.39-12.44,5.98-.16.06-.32.15-.48.21-.55.21-1.23.5-1.62-.02-.47-.62.36-.99.61-1.47.37-.08.63-.3.76-.66Z"/>
      <path class="cls-10" d="m66.73,65.7c-.24.38-.62.33-.98.33-1.53-3.07-1.68-6.15.18-9.12,3.19-5.09,10.52-4.93,13.58.25.18.3.37.58.56.88-.02.43-.27.61-.67.63-1.81-3.28-4.86-4.9-7.73-4.41-4.83.83-8.03,6.45-4.93,11.45Z"/>
      <path class="cls-11" d="m62.18,16.17c-.04.11-.07.22-.11.34-.1.06-.2.12-.3.18-.19.07-.55.19-.49-.05.08-.36.46-.58.9-.47Z"/>
      <path class="cls-2" d="m74.35,29.52c.9-.73,1.64-1.39,2.44-1.95,1.52-1.05,2.62-.71,3.53.92.31.57.53.97-.19,1.35-.2.1-.33.33-.48.5q-1.95,2.19-4.02.13c-.32-.32-.74-.55-1.28-.95Z"/>
      <path class="cls-11" d="m59.69,18.96l.15-.48c.06.05.19.13.18.15-.07.14-.16.27-.24.41,0,0-.09-.08-.09-.08Z"/>
      <path class="cls-10" d="m73.05,61.85c.05.27.9.46.07.81-.99.41-1.83,1.15-2.95,1.25.14-.9.04-1.67-1.12-1.72-.79-.03-1.48.31-1.52,1.11-.06,1.05.76,1.31,1.66,1.32-.43.56-1.03.73-1.71.72-1.08-2.05-1.79-4.12-.4-6.33.02,2.28.38,2.51,2.41,1.55.09-.04.27.13.41.2-.14.75.16,1.12.93,1.03.37-.04.71-.26.69-.65-.04-.85-.72-.74-1.29-.74.49-.86.17-1.32-.75-1.37-.8-.05-1.61-.01-2.41-.02.35-1.58,1.27-2.65,2.85-3.12-.09.27-.2.54-.28.82-.24.88-.05,1.52.97,1.6.78.06,1.57.04,1.71-1,.13-1-.52-1.32-1.36-1.41-.34-.04-.69,0-1.04,0,1.37-1.3,3-1.42,3.8-.27-.31.32-.46-.62-.81-.1-.21.32-.1.53.21.7.51.28,1.13.52.94,1.26-.34,1.32.47,1.48,1.44,1.53l.02.02c-.05.63-.17,1.3.67,1.55-.24.69-.83.8-1.45.87.05-.69.21-1.45-.72-1.7-.58-.15-1.2-.13-1.52.48-.36.67-.11,1.22.53,1.61Z"/>
      <path class="cls-14" d="m69.93,55.9c-1.57.47-2.49,1.53-2.85,3.12h0c-1.39,2.2-.68,4.28.4,6.33-.17.29-.45.35-.75.36-3.1-5,.1-10.62,4.93-11.45,2.88-.49,5.92,1.13,7.73,4.41-.26.43-.65.36-1.04.28-.14-.7-.39-1.34-1.05-1.72-.94-1.08-1.88-2.17-3.56-1.6-.79-1.15-2.43-1.04-3.8.27h0Z"/>
      <path class="cls-9" d="m69.19,64.62c-.9,0-1.72-.27-1.66-1.32.04-.79.73-1.14,1.52-1.11,1.16.05,1.25.81,1.12,1.72-.33.24-.65.47-.98.71Z"/>
      <path class="cls-9" d="m73.05,61.85c-.64-.38-.88-.93-.53-1.61.32-.61.95-.64,1.52-.48.92.25.77,1.01.72,1.7-.52.36-1.11.39-1.71.39Z"/>
      <path class="cls-10" d="m77.3,57.23c.66.38.91,1.02,1.05,1.72-.06.7-.39,1.13-1.16,1.1,0-1.25-.84-1.11-1.66-1.01,0,0-.02-.02-.02-.02.25-.94,1.83-.55,1.78-1.79Z"/>
      <path class="cls-2" d="m75.54,59.04c.82-.1,1.66-.24,1.66,1.01-.33.18-.66.36-.98.54-.84-.25-.72-.91-.67-1.55Z"/>
      <path class="cls-12" d="m77.3,57.23c.05,1.24-1.53.86-1.78,1.79-.97-.05-1.78-.22-1.44-1.53.19-.75-.44-.99-.94-1.26-.3-.17-.42-.38-.21-.7.34-.52.49.43.81.1,1.68-.57,2.62.52,3.56,1.6Z"/>
      <path class="cls-12" d="m67.09,59.02c.8,0,1.61-.03,2.41.02.92.06,1.24.51.75,1.37-.11.12-.22.24-.33.36-.14-.07-.32-.24-.41-.2-2.04.96-2.39.73-2.41-1.55,0,0,0,0,0,0Z"/>
      <path class="cls-9" d="m69.94,55.89c.35,0,.7-.03,1.04,0,.83.09,1.48.41,1.36,1.41-.13,1.04-.92,1.06-1.71,1-1.03-.08-1.22-.72-.97-1.6.08-.28.18-.54.28-.82,0,0,0,0,0,0Z"/>
      <path class="cls-2" d="m69.91,60.76c.11-.12.22-.24.33-.36.58,0,1.25-.11,1.29.74.02.39-.32.6-.69.65-.78.09-1.07-.28-.93-1.03Z"/>
    </g>
  </g>
</svg>