<?xml version="1.0" encoding="UTF-8"?>
<svg id="Layer_1" data-name="Layer 1" xmlns="http://www.w3.org/2000/svg" viewBox="0 0 41.9 20.27">
  <defs>
    <style>
      .cls-1 {
        fill: #f9ecea;
      }

      .cls-1, .cls-2, .cls-3, .cls-4, .cls-5, .cls-6, .cls-7, .cls-8, .cls-9, .cls-10, .cls-11 {
        stroke-width: 0px;
      }

      .cls-2 {
        fill: #d9232a;
      }

      .cls-3 {
        fill: #d8222a;
      }

      .cls-4 {
        fill: #d82229;
      }

      .cls-5 {
        fill: #faebeb;
      }

      .cls-6 {
        fill: #faebed;
      }

      .cls-7 {
        fill: #fcf7f6;
      }

      .cls-8 {
        fill: #fceff0;
      }

      .cls-9 {
        fill: #fbf1f1;
      }

      .cls-10 {
        fill: #fbf5f6;
      }

      .cls-11 {
        fill: #fbeeef;
      }
    </style>
  </defs>
  <path class="cls-4" d="m0,9.56c.59-.06,1.18-.13,1.77-.16,3.71-.2,7.35.15,10.79,1.69.48.21.94.52,1.33.88.71.65.66,1.53-.13,2.09-.48.34-1.04.62-1.61.81-2.06.68-4.16,1.19-6.31,1.48-.33.05-.56.17-.69.49-.45,1.07-.89,2.14-1.34,3.21-.03.07-.06.15-.16.23-.14-.85-.32-1.69-.42-2.54-.08-.65-.11-1.32-.05-1.97.07-.78.52-1.35,1.24-1.69.68-.32,1.37-.63,2.13-.89-.26.76-.51,1.52-.8,2.37,1.37-.32,2.56-.75,3.32-1.89.4-.59.27-1.29-.25-1.81-.47-.47-1.06-.74-1.68-.96-1.71-.6-3.49-.87-5.29-1.04-.61-.06-1.22-.09-1.83-.14,0-.05,0-.09,0-.14Z"/>
  <path class="cls-2" d="m34.69,19.95c-.12.06-.24.15-.36.17-.39.04-.79.07-1.18.07-2.67.03-5.33.06-8,.06-.95,0-1.91-.06-2.86-.13-.66-.04-.94-.49-.73-1.12.22-.65.48-1.28.71-1.93.06-.18.21-.41-.09-.54-.24-.1-.7.04-.79.25-.24.57-.47,1.14-.71,1.71-.18.45-.35.91-.55,1.36-.05.11-.2.26-.3.26-1.21,0-2.42-.02-3.63-.04-.11,0-.24-.02-.34-.06-.78-.37-1.59-.15-2.4-.12-1.21.04-2.42.04-3.63.04-.23,0-.46-.08-.68-.15-.45-.14-.59-.37-.42-.82.27-.75.63-1.48.86-2.25.21-.71.61-1.08,1.33-1.21.51-.09,1-.3,1.57-.47-.06.19-.1.33-.16.47-.39.87-.78,1.74-1.16,2.61-.08.18-.12.38-.16.57-.13.55-.08.63.47.78.03,0,.07.02.1.03.59.12.62.11.71-.48.08-.52.14-1.04.24-1.55.22-1.21.97-1.86,2.19-1.88,1.23-.02,2.46,0,3.71,0,0,.33-.16.53-.45.61-.23.06-.48.09-.72.1-.47.02-.93,0-1.4,0-.39,0-.74.15-.9.5-.25.55-.45,1.14-.63,1.72-.04.14.01.36.1.49.21.32.49.28.64-.07.25-.6.51-1.2.75-1.81.09-.23.22-.35.49-.35.55,0,1.09-.04,1.7-.07-.09.22-.17.39-.24.57-.18.43-.4.84-.53,1.28-.15.48.04.72.51.84.28.08.43,0,.53-.28.41-1.05.85-2.09,1.26-3.14.09-.24.22-.34.48-.34.98,0,1.96-.02,2.93-.03.17,0,.35.01.52.04.61.1.93.52.8,1.12-.1.45-.29.88-.44,1.32-.09.28-.19.55-.24.84-.07.39.31.78.69.73.08-.01.18-.14.2-.23.14-.5.29-1.01.39-1.52.25-1.3,1.01-2.01,2.33-2.16.96-.11,1.9-.06,2.83.24.24.08.32.21.32.45,0,1.71-1.34,2.73-2.95,2.24-.06-.02-.12-.05-.29-.13.19-.16.33-.28.48-.4.17-.14.38-.26.49-.45.18-.31.29-.66.43-.99-.41-.19-.89-.11-1.15.27-.2.29-.34.63-.45.97-.12.37-.16.77-.27,1.15-.06.23.02.34.22.38.28.06.57.14.86.14.78.01,1.56,0,2.34-.03.1,0,.26-.09.29-.17.53-1.45,1.04-2.91,1.56-4.37,0,0,0-.02-.03-.08-5.18-.21-10.38,0-15.59-.08.84-.08,1.68-.19,2.52-.22,4.29-.15,8.59-.27,12.88-.4.57-.02.57,0,.76-.54.19-.52.19-.52.76-.53.52,0,1.04,0,1.62,0-.12.34-.25.69-.38,1.08,1,.05,1.98.1,2.96.15.04.26-.08.38-.28.43-.16.04-.32.06-.48.06-.7,0-1.4-.01-2.1,0-.13,0-.34.1-.38.2-.46,1.24-.91,2.49-1.33,3.75-.2.61-.11.71.54.81.3.04.6.05.9.08.13.01.26.05.39.08,0,.04.02.07.03.11Z"/>
  <path class="cls-2" d="m30.57,6.62c-1.25,1.29-2.46,2.53-3.7,3.82.11.01.19.03.28.03.69,0,1.37,0,2.06,0,.14,0,.33-.03.42-.12.95-.96,1.88-1.93,2.82-2.89-.01-.03-.02-.06-.03-.09-.55.03-1.09.05-1.64.08.32-.84.21-.73.95-.74,1.35-.02,2.7-.03,4.05-.05.13,0,.25,0,.38,0,.02.03.04.07.07.1-.6.6-1.2,1.19-1.79,1.79-.6.61-1.19,1.23-1.85,1.92.87,0,1.64,0,2.41,0,.64,0,.63,0,.74-.63.1-.58.19-1.17.36-1.74.24-.85.85-1.33,1.72-1.4.69-.05,1.39-.03,2.09-.03.64,0,1.28,0,1.92,0,.04.44-.06.59-.45.61-.64.03-1.28.05-1.92.05-.47,0-.82.19-1.09.57-.38.52-.66,1.07-.62,1.74,0,.15.07.33.16.45.26.34.47.3.63-.09.24-.61.49-1.21.72-1.82.08-.22.2-.31.44-.31.55,0,1.11,0,1.68,0-.2.51-.41,1.01-.61,1.51-.31.81-.06,1.18.8,1.18.11,0,.23,0,.35,0-.14.61-.14.61-.7.61-.54,0-1.07.02-1.61-.02-.41-.03-.8-.2-1.21-.21-.41,0-.82.17-1.23.17-3.26.02-6.52.02-9.78.02-1.54,0-3.07-.02-4.61-.04-.36,0-.72-.03-1.08-.06-.8-.07-1.18-.59-.92-1.35.2-.61.47-1.19.72-1.78.06-.15.18-.29.2-.44.11-.74.57-.89,1.23-.82.38.04.77,0,1.21,0-.17.38-.33.74-.48,1.11-.25.62-.5,1.25-.73,1.88-.05.14-.05.3-.03.45.05.38.36.57.71.41.23-.1.46-.24.64-.41.84-.85,1.66-1.73,2.49-2.59.02-.02.03-.06.07-.12h-1.56c.17-.71.17-.71.84-.72,1.39-.02,2.77-.04,4.16-.05.11,0,.22.02.35.03Z"/>
  <path class="cls-4" d="m5.23,4.65c0-1.57.98-2.93,2.48-3.44,1.43-.49,3.08,0,4.01,1.21.16.21.28.25.54.18.83-.21,1.68-.38,2.52-.54.23-.04.49-.02.73.02.48.08.58.36.25.72-.22.24-.47.46-.74.63-.74.46-1.5.88-2.26,1.31-.16.09-.26.18-.29.38-.31,1.82-1.53,2.97-3.35,3.15-.96.09-1.82-.2-2.56-.81-.18-.15-.32-.15-.53-.1-.84.2-1.67.4-2.52.56-.31.06-.65.03-.97-.03-.41-.08-.51-.39-.19-.64.77-.63,1.58-1.22,2.4-1.78.45-.31.48-.27.48-.8Zm6.84-1.85c.17.56.32,1.03.47,1.51.66-.4,1.33-.78,1.85-1.38.08-.09.16-.27.12-.37-.03-.08-.24-.15-.35-.13-.69.11-1.38.24-2.08.37Zm-6.87,2.53c-.43.36-.88.7-1.28,1.09-.13.12-.21.44-.14.58.07.14.36.26.54.24.54-.07,1.08-.2,1.6-.31-.25-.54-.46-1.02-.73-1.6Zm4.37-2.98c-.02-.24-.15-.44-.39-.39-.15.03-.34.2-.38.35-.07.23.1.4.35.41.25.02.38-.13.42-.37Zm-.99,2.17v-.17c-.16-.1-.3-.26-.47-.29-.24-.04-.38.15-.38.39,0,.26.16.41.4.37.17-.03.31-.19.46-.3Zm-1.1-1.95s-.1,0-.15,0c-.09.13-.26.26-.25.37.02.12.19.29.32.31.09.01.29-.18.3-.29,0-.12-.14-.26-.22-.39Zm-.3,2.94c-.2-.16-.32-.32-.43-.31-.12.01-.22.18-.33.28.1.11.19.28.31.3.11.02.24-.13.45-.26Zm1.47,1.46c-.21-.15-.33-.3-.44-.3-.1,0-.29.18-.28.26.01.12.16.29.27.31.1.02.24-.13.45-.27Zm-2.05-3.21c-.15.2-.32.33-.31.43.01.11.18.27.3.29.08.02.27-.17.28-.27,0-.12-.13-.25-.27-.46Zm3.71,3.16c-.19-.15-.31-.32-.42-.31-.12.01-.22.19-.32.29.11.1.2.25.32.28.09.02.22-.13.42-.26Zm0-3.05c-.2-.13-.33-.28-.42-.26-.12.02-.22.18-.32.28.11.1.2.27.32.28.11.01.23-.15.43-.3Z"/>
  <path class="cls-3" d="m12.02.34C13.61-.02,15.22-.06,16.84.06c2.4.17,4.77.53,7.02,1.42.66.26,1.3.63,1.86,1.07.82.64.78,1.59-.06,2.21-.39.29-.85.52-1.32.69-2.04.74-4.16,1.2-6.3,1.52-.56.08-.91.29-1.12.82-.36.92-.75,1.83-1.12,2.74-.06.14-.11.28-.24.43-.1-.49-.24-.97-.3-1.47-.09-.77-.15-1.55-.17-2.33-.02-1.11.48-1.96,1.44-2.5.6-.34,1.25-.6,1.98-.95-.29.87-.55,1.65-.84,2.5.29-.05.52-.08.73-.14.98-.25,1.79-.77,2.39-1.6.57-.78.44-1.62-.33-2.21-.85-.64-1.83-.98-2.85-1.15-1.69-.28-3.38-.48-5.08-.71-.17-.02-.34-.04-.51-.07Zm11.54,4.94c.35-.09.68-.16,1-.27.27-.09.46-.28.42-.6-.03-.3-.24-.42-.5-.51-.63-.21-1.24-.06-1.85.08-.23.05-.4.19-.42.44-.03.27.08.47.33.55.34.12.68.2,1.02.3Z"/>
  <path class="cls-7" d="m9.58,2.35c-.04.24-.17.39-.42.37-.25-.02-.42-.18-.35-.41.04-.15.23-.32.38-.35.24-.04.37.15.39.39Z"/>
  <path class="cls-10" d="m8.59,4.52c-.15.1-.29.26-.46.3-.24.05-.4-.11-.4-.37,0-.24.14-.43.38-.39.17.03.31.19.47.29v.17Z"/>
  <path class="cls-8" d="m7.49,2.57c.08.13.23.27.22.39,0,.11-.21.3-.3.29-.13-.02-.31-.19-.32-.31-.01-.11.16-.25.25-.37.05,0,.1,0,.15,0Z"/>
  <path class="cls-6" d="m7.19,5.51c-.21.13-.35.28-.45.26-.12-.02-.21-.19-.31-.3.11-.1.21-.27.33-.28.1,0,.23.16.43.31Z"/>
  <path class="cls-1" d="m8.66,6.97c-.21.14-.35.29-.45.27-.11-.02-.26-.19-.27-.31,0-.08.18-.26.28-.26.12,0,.23.15.44.3Z"/>
  <path class="cls-5" d="m6.61,3.77c.13.21.27.34.27.46,0,.1-.2.28-.28.27-.12-.02-.29-.18-.3-.29,0-.11.15-.23.31-.43Z"/>
  <path class="cls-11" d="m10.32,6.93c-.2.13-.32.28-.42.26-.12-.02-.22-.18-.32-.28.11-.1.21-.28.32-.29.1-.01.23.16.42.31Z"/>
  <path class="cls-9" d="m10.33,3.88c-.2.15-.32.31-.43.3-.11-.01-.21-.18-.32-.28.11-.1.2-.25.32-.28.09-.02.22.13.42.26Z"/>
</svg>